<svg width="331" height="331" viewBox="0 0 331 331" fill="none" xmlns="http://www.w3.org/2000/svg">
<g opacity="0.5">
<path opacity="0.5" d="M165.5 331C256.903 331 331 256.903 331 165.5C331 74.0969 256.903 0 165.5 0C74.0969 0 0 74.0969 0 165.5C0 256.903 74.0969 331 165.5 331Z" fill="url(#paint0_linear_109_2)"/>
</g>
<path d="M165.822 326.452C255.298 326.452 327.832 253.918 327.832 164.442C327.832 74.9669 255.298 2.43262 165.822 2.43262C76.3469 2.43262 3.81268 74.9669 3.81268 164.442C3.81268 253.918 76.3469 326.452 165.822 326.452Z" fill="var(--secondary-color)"/>
<path d="M165.974 327.092C197.631 327.144 228.602 317.875 255.027 300.442C249.056 267.816 226.337 265.957 226.337 265.957H101.05C101.05 265.957 79.6107 267.716 72.9149 297.729C100.158 316.892 132.666 327.15 165.974 327.092V327.092Z" fill="var(--primary-color)"/>
<path d="M164.253 239.226C207.44 239.226 242.45 204.215 242.45 161.028C242.45 117.841 207.44 82.8306 164.253 82.8306C121.065 82.8306 86.0552 117.841 86.0552 161.028C86.0552 204.215 121.065 239.226 164.253 239.226Z" fill="var(--tertiary-color)"/>
<path opacity="0.1" d="M139.015 226.161H189.121V266.246C189.121 272.889 186.482 279.26 181.786 283.958C177.09 288.656 170.72 291.296 164.077 291.299V291.299C157.433 291.299 151.061 288.659 146.362 283.961C141.664 279.263 139.025 272.891 139.025 266.246V226.161H139.015Z" fill="var(--secondary-color)"/>
<path d="M140.604 224.302H187.551C187.972 224.302 188.376 224.47 188.674 224.768C188.972 225.065 189.139 225.47 189.139 225.891V264.387C189.14 267.679 188.492 270.938 187.233 273.978C185.974 277.019 184.127 279.782 181.8 282.109C179.473 284.436 176.709 286.281 173.669 287.54C170.628 288.799 167.368 289.446 164.077 289.445V289.445C157.433 289.445 151.061 286.805 146.362 282.107C141.664 277.409 139.025 271.036 139.025 264.392V225.891C139.025 225.471 139.191 225.069 139.487 224.771C139.783 224.473 140.184 224.305 140.604 224.302V224.302Z" fill="white"/>
<path opacity="0.1" d="M139.105 245.082C155.254 251.115 173.029 251.164 189.211 245.22V239.055H139.105V245.082Z" fill="var(--secondary-color)"/>
<path d="M164.253 248.435C203.918 248.435 236.072 216.28 236.072 176.616C236.072 136.951 203.918 104.796 164.253 104.796C124.588 104.796 92.4334 136.951 92.4334 176.616C92.4334 216.28 124.588 248.435 164.253 248.435Z" fill="white"/>
<path opacity="0.1" d="M113.095 111.288C113.095 111.288 143.364 172.727 228.746 137.047L208.867 105.877L173.628 93.23L113.095 111.288Z" fill="var(--secondary-color)"/>
<path d="M113.095 110.387C113.095 110.387 143.364 171.826 228.746 136.137L208.867 104.967L173.628 92.3196L113.095 110.387Z" fill="var(--tertiary-color)"/>
<path d="M112.829 106.223C114.87 99.9056 118.397 94.1699 123.115 89.498C137.242 75.5325 160.402 72.5876 172.281 56.6636C175.126 61.0832 172.926 67.8787 168.013 69.7755C179.394 69.6997 192.582 68.7038 199.017 59.3429C200.608 63.0452 201.115 67.1228 200.479 71.1018C199.844 75.0808 198.092 78.7977 195.428 81.8205C205.514 82.2947 216.293 89.1234 216.928 99.2004C217.365 105.915 213.135 112.27 207.638 116.12C202.142 119.971 195.446 121.74 188.879 123.186C169.701 127.421 100.315 145.142 112.829 106.223Z" fill="var(--tertiary-color)"/>
<path d="M92.405 189.078C96.0951 189.078 99.0866 183.469 99.0866 176.549C99.0866 169.63 96.0951 164.021 92.405 164.021C88.7148 164.021 85.7233 169.63 85.7233 176.549C85.7233 183.469 88.7148 189.078 92.405 189.078Z" fill="white"/>
<path d="M236.063 189.078C239.753 189.078 242.744 183.469 242.744 176.549C242.744 169.63 239.753 164.021 236.063 164.021C232.373 164.021 229.381 169.63 229.381 176.549C229.381 183.469 232.373 189.078 236.063 189.078Z" fill="white"/>
<defs>
<linearGradient id="paint0_linear_109_2" x1="165.5" y1="331" x2="165.5" y2="0" gradientUnits="userSpaceOnUse">
<stop stop-color="#808080" stop-opacity="0.25"/>
<stop offset="0.54" stop-color="#808080" stop-opacity="0.12"/>
<stop offset="1" stop-color="#808080" stop-opacity="0.1"/>
</linearGradient>
</defs>
</svg>
