<?xml version="1.0" standalone="no"?>
<!DOCTYPE svg PUBLIC "-//W3C//DTD SVG 20010904//EN"
 "http://www.w3.org/TR/2001/REC-SVG-20010904/DTD/svg10.dtd">
<svg version="1.0" xmlns="http://www.w3.org/2000/svg"
 width="512.000000pt" height="512.000000pt" viewBox="0 0 512.000000 512.000000"
 preserveAspectRatio="xMidYMid meet">
<metadata>
Created by potrace 1.14, written by Peter Selinger 2001-2017
</metadata>
<g transform="translate(0.000000,512.000000) scale(0.100000,-0.100000)"
fill="#000000" stroke="none">
<path d="M0 2560 l0 -2560 2560 0 2560 0 0 2560 0 2560 -2560 0 -2560 0 0
-2560z m2913 1102 c150 -61 233 -215 225 -417 l-3 -80 -355 -5 c-341 -5 -357
-6 -396 -27 -47 -25 -94 -76 -126 -136 -23 -42 -23 -46 -23 -439 l0 -398 -190
0 -191 0 -198 -235 c-109 -129 -201 -235 -205 -235 -27 0 -31 32 -31 246 l0
222 -182 4 c-179 3 -184 4 -241 32 -70 36 -130 99 -165 174 l-27 57 0 500 0
500 28 57 c47 96 142 173 244 197 21 5 422 9 908 8 l870 -2 58 -23z m1265
-658 c57 -28 96 -69 123 -129 17 -37 19 -75 19 -468 0 -345 -3 -434 -14 -461
-22 -52 -86 -117 -141 -142 -48 -23 -60 -24 -287 -24 l-238 0 -2 -167 c-2
-109 -7 -168 -14 -170 -6 -2 -75 73 -154 167 l-144 170 -355 0 c-215 0 -371 4
-393 10 -57 16 -120 70 -153 130 l-30 55 -3 414 c-3 481 -3 481 82 566 28 28
67 56 86 62 24 8 273 11 801 12 l765 1 52 -26z"/>
</g>
</svg>
